3.0Hz3min_grf.mot
version=1
nRows=12
nColumns 19
inDegrees=yes
endheader
time	1_ground_force_vx	1_ground_force_vy	1_ground_force_vz	1_ground_force_px	1_ground_force_py	1_ground_force_pz	1_ground_torque_x	1_ground_torque_y	1_ground_torque_z	2_ground_force_vx	2_ground_force_vy	2_ground_force_vz	2_ground_force_px	2_ground_force_py	2_ground_force_pz	2_ground_torque_x	2_ground_torque_y	2_ground_torque_z
            2.497500	          -16.644395	          103.983144	            6.769560	           -0.188706	            0.006224	           -0.403696	           -0.042866	            0.267798	            0.017434	          -33.325702	          108.334409	            3.216702	           -0.176799	            0.005976	           -0.734460	            0.036988	           -0.120240	           -0.003570
            2.498000	          -21.874885	          111.198070	            5.575340	           -0.194614	            0.006191	           -0.396170	           -0.075530	            0.383946	            0.019251	          -37.219675	          109.973177	            4.491328	           -0.175035	            0.005992	           -0.737105	            0.060762	           -0.179533	           -0.007332
            2.498500	          -28.577046	          116.078105	            2.311195	           -0.197115	            0.006197	           -0.397761	           -0.036810	            0.149521	            0.002977	          -41.300376	          111.427128	            5.765377	           -0.175301	            0.005998	           -0.738922	            0.037484	           -0.101130	           -0.005233
            2.499000	          -35.922221	          119.518448	           -1.553667	           -0.191509	            0.006218	           -0.402375	            0.048533	           -0.161476	            0.002099	          -45.330655	          111.958505	            7.599257	           -0.172943	            0.006006	           -0.738759	           -0.004891	            0.012079	            0.000820
            2.499500	          -43.311431	          118.630635	           -5.024263	           -0.189628	            0.006216	           -0.401947	            0.080810	           -0.221340	            0.009374	          -48.991603	          113.965579	            9.109738	           -0.169940	            0.006017	           -0.738872	           -0.051073	            0.118808	            0.009497
            2.500000	          -49.594667	          116.832074	           -6.254515	           -0.192216	            0.006189	           -0.395577	           -0.041243	            0.097158	           -0.005201	          -52.373237	          116.524447	           11.091352	           -0.168436	            0.006024	           -0.739265	           -0.059193	            0.131697	            0.012536
            2.500500	          -53.587657	          117.379964	           -8.076534	           -0.189163	            0.006183	           -0.394058	           -0.066337	            0.145307	           -0.009998	          -55.240311	          119.270335	           12.791835	           -0.167688	            0.006036	           -0.741959	           -0.044915	            0.096977	            0.010401
            2.501000	          -56.066552	          119.007186	           -9.301543	           -0.184180	            0.006196	           -0.396906	            0.043384	           -0.092087	            0.007197	          -57.118904	          120.730897	           14.440372	           -0.167877	            0.006035	           -0.741895	            0.023260	           -0.049164	           -0.005880
            2.501500	          -58.589783	          118.649509	          -10.076382	           -0.184502	            0.006200	           -0.397817	            0.169755	           -0.343769	            0.029195	          -58.436237	          122.558606	           16.981618	           -0.165721	            0.006045	           -0.742429	           -0.023784	            0.049883	            0.006912
            2.502000	          -60.929094	          120.273218	          -10.476325	           -0.188694	            0.006191	           -0.395983	            0.100099	           -0.197594	            0.017211	          -59.664786	          125.677860	           18.917359	           -0.165698	            0.006043	           -0.741934	           -0.070493	            0.148486	            0.022350
            2.502500	          -63.132804	          124.963829	          -11.413741	           -0.185845	            0.006191	           -0.395815	           -0.008953	            0.017721	           -0.001619	          -60.424716	          128.797801	           21.134468	           -0.165561	            0.006047	           -0.742944	           -0.063908	            0.136222	            0.022353
            2.503000	          -65.660456	          126.956488	          -13.783489	           -0.180457	            0.006199	           -0.397475	           -0.019802	            0.038288	           -0.004157	          -61.472602	          133.759899	           22.888987	           -0.167525	            0.006046	           -0.744457	           -0.078777	            0.171413	            0.029332
